<svg id="add" xmlns="http://www.w3.org/2000/svg" width="24" height="24" viewBox="0 0 24 24">
  <g id="vuesax_bold_folder-add" data-name="vuesax/bold/folder-add">
    <g id="folder-add">
      <path id="Vector" d="M19.67,7.25H0V4.42A4.421,4.421,0,0,1,4.42,0H6.74A2.866,2.866,0,0,1,9.53,1.4l1.4,1.86c.31.41.35.46.93.46h2.79A5.335,5.335,0,0,1,19.67,7.25Z" transform="translate(2 2)" fill="#3b82f6"/>
      <path id="Vector-2" data-name="Vector" d="M19.98,0H0V5.9a5.356,5.356,0,0,0,5.35,5.35h9.3A5.356,5.356,0,0,0,20,5.9ZM12.5,6H10.81V7.75a.75.75,0,0,1-1.5,0V6H7.5a.75.75,0,0,1,0-1.5H9.31V2.75a.75.75,0,0,1,1.5,0V4.5H12.5a.75.75,0,0,1,0,1.5Z" transform="translate(2 10.75)" fill="#3b82f6"/>
      <path id="Vector-3" data-name="Vector" d="M0,0H24V24H0Z" transform="translate(24 24) rotate(180)" fill="none" opacity="0"/>
    </g>
  </g>
</svg>
