<svg id="calendar" xmlns="http://www.w3.org/2000/svg" width="24" height="24" viewBox="0 0 24 24">
  <g id="vuesax_bold_calendar" data-name="vuesax/bold/calendar">
    <g id="calendar-2" data-name="calendar">
      <path id="Vector" d="M.75,4.5A.755.755,0,0,1,0,3.75v-3A.755.755,0,0,1,.75,0,.755.755,0,0,1,1.5.75v3A.755.755,0,0,1,.75,4.5Z" transform="translate(7.5 1.25)" fill="#9ca3af"/>
      <path id="Vector-2" data-name="Vector" d="M.75,4.5A.755.755,0,0,1,0,3.75v-3A.755.755,0,0,1,.75,0,.755.755,0,0,1,1.5.75v3A.755.755,0,0,1,.75,4.5Z" transform="translate(15 1.25)" fill="#9ca3af"/>
      <path id="Vector-3" data-name="Vector" d="M.9,1.59a.812.812,0,0,0,.9-.8A.8.8,0,0,0,.9,0,.8.8,0,0,0,0,.79.812.812,0,0,0,.9,1.59Z" transform="translate(11.1 12.5)" fill="#9ca3af"/>
      <path id="Vector-4" data-name="Vector" d="M2.28.93a1.051,1.051,0,0,1-1.14.93A1.051,1.051,0,0,1,0,.93,1.051,1.051,0,0,1,1.14,0,1.051,1.051,0,0,1,2.28.93Z" transform="translate(10.86 15.14)" fill="#9ca3af"/>
      <path id="Vector-5" data-name="Vector" d="M17.07,1a1.01,1.01,0,0,0-1.61.81v.1a2.343,2.343,0,0,1-2.01,2.37,2.253,2.253,0,0,1-2.49-2.24V1a1,1,0,0,0-1-1H9.04a1,1,0,0,0-1,1V2.04A2.219,2.219,0,0,1,7.01,3.92a2.694,2.694,0,0,1-.29.16,1.343,1.343,0,0,1-.3.12,1.587,1.587,0,0,1-.39.08,1.927,1.927,0,0,1-.48,0,1.587,1.587,0,0,1-.39-.08,1.877,1.877,0,0,1-.3-.12,2.694,2.694,0,0,1-.29-.16A2.467,2.467,0,0,1,3.54,1.91v-.1A1.015,1.015,0,0,0,2.07.91c-.01.01-.02.01-.03.02A.673.673,0,0,0,1.93,1c-.03.03-.07.05-.1.08a4.318,4.318,0,0,0-.74.74,2.474,2.474,0,0,0-.28.38.138.138,0,0,0-.03.04,3.5,3.5,0,0,0-.24.42c-.02.02-.03.03-.03.05a2.43,2.43,0,0,0-.16.37.843.843,0,0,0-.06.14,3.88,3.88,0,0,0-.14.45,3.117,3.117,0,0,0-.09.44c-.02.11-.03.22-.04.34-.01.14-.02.28-.02.42v8.76A4.87,4.87,0,0,0,4.87,18.5h9.26A4.87,4.87,0,0,0,19,13.63V4.87A4.839,4.839,0,0,0,17.07,1ZM9.5,14.75c-1.55,0-2.5-.77-2.5-2.01a1.835,1.835,0,0,1,.96-1.62,1.643,1.643,0,0,1-.73-1.4A2.019,2.019,0,0,1,9.5,7.75a2.01,2.01,0,0,1,2.26,1.97,1.62,1.62,0,0,1-.73,1.4A1.825,1.825,0,0,1,12,12.74C12,13.98,11.04,14.75,9.5,14.75Z" transform="translate(2.5 3.5)" fill="#9ca3af"/>
      <path id="Vector-6" data-name="Vector" d="M0,0H24V24H0Z" transform="translate(24 24) rotate(180)" fill="none" opacity="0"/>
    </g>
  </g>
</svg>
