<svg id="calendar-black" xmlns="http://www.w3.org/2000/svg" width="24" height="24" viewBox="0 0 24 24">
  <g id="vuesax_bold_calendar-tick" data-name="vuesax/bold/calendar-tick">
    <g id="calendar-tick">
      <path id="Vector" d="M0,0H24V24H0Z" fill="none" opacity="0"/>
      <path id="Vector-2" data-name="Vector" d="M13.711,2.31V.75a.75.75,0,0,0-1.5,0v1.5h-6.5V.75a.75.75,0,0,0-1.5,0V2.31A4.248,4.248,0,0,0,0,6.56a.5.5,0,0,0,.5.53h16.92a.5.5,0,0,0,.5-.53A4.248,4.248,0,0,0,13.711,2.31Z" transform="translate(3.039 1.25)" fill="#292d32"/>
      <path id="Vector-3" data-name="Vector" d="M4,0A4,4,0,0,0,0,4,3.921,3.921,0,0,0,.58,6.06a3.985,3.985,0,0,0,6.84,0A3.921,3.921,0,0,0,8,4,4,4,0,0,0,4,0ZM6.07,3.57,3.94,5.54a.763.763,0,0,1-.51.2.742.742,0,0,1-.53-.22l-.99-.99A.75.75,0,0,1,2.97,3.47l.48.48,1.6-1.48a.75.75,0,1,1,1.02,1.1Z" transform="translate(15 15)" fill="#292d32"/>
      <path id="Vector-4" data-name="Vector" d="M17,0H1A1,1,0,0,0,0,1V7.16c0,3,1.5,5,5,5H9.93a1,1,0,0,0,.95-1.32,5.823,5.823,0,0,1-.37-1.68,5.51,5.51,0,0,1,5.5-5.5,4.909,4.909,0,0,1,.86.07,1,1,0,0,0,1.14-.98V1.01A1.02,1.02,0,0,0,17,0ZM6.21,8.37a1.014,1.014,0,0,1-1.42,0,1.014,1.014,0,0,1,0-1.42,1.032,1.032,0,0,1,.33-.21,1,1,0,0,1,1.09.21,1.014,1.014,0,0,1,0,1.42Zm0-3.5-.15.12a.757.757,0,0,1-.18.09.636.636,0,0,1-.18.06,1.5,1.5,0,0,1-.2.02.99.99,0,0,1-1-1,1.052,1.052,0,0,1,.29-.71,1.009,1.009,0,0,1,.91-.27.636.636,0,0,1,.18.06.757.757,0,0,1,.18.09l.15.12a1.014,1.014,0,0,1,0,1.42Zm3.5,0A1,1,0,0,1,8,4.16a1.052,1.052,0,0,1,.29-.71,1.047,1.047,0,0,1,1.42,0,1.014,1.014,0,0,1,0,1.42Z" transform="translate(3 9.84)" fill="#292d32"/>
    </g>
  </g>
</svg>
