<svg xmlns="http://www.w3.org/2000/svg" viewBox="0 0 50 50">
  <path d="M31.177734 2C28.633734 2 25.881188 3.7323906 23.992188 6.5253906C22.700187 8.4343906 21.993 10.579453 22 12.564453C22.007 14.593453 22.761047 16.233594 24.123047 17.183594C24.890047 17.718594 25.823219 18 26.824219 18L26.904297 18C29.422297 17.961 32.144813 16.227609 34.007812 13.474609C35.294813 11.571609 36.002 9.432125 36 7.453125C35.998 5.415125 35.243953 3.7694062 33.876953 2.8164062C33.112953 2.2844062 32.183453 2.002 31.189453 2L31.177734 2 z M 15.339844 5C12.746844 5.005 10.218125 7.581 9.328125 11.125C9.106125 12.006 8.997 12.895531 9 13.769531C9.013 16.881531 10.438812 19.274234 12.632812 19.865234C12.965813 19.955234 13.30925 20 13.65625 20L13.671875 20C16.259875 19.989 18.782875 17.413 19.671875 13.875C19.890875 13.004 20 12.126625 20 11.265625C19.998 8.135625 18.573141 5.7287656 16.369141 5.1347656C16.037141 5.0447656 15.693656 5 15.347656 5L15.339844 5 z M 42.537109 14C40.560109 14 38.425391 14.707188 36.525391 15.992188C33.772391 17.855187 32.039 20.577703 32 23.095703C31.984 24.127703 32.267406 25.088953 32.816406 25.876953C33.766406 27.238953 35.406547 27.993 37.435547 28L37.464844 28C39.441844 28 41.573656 27.293812 43.472656 26.007812C46.270656 24.115813 48.005 21.357547 48 18.810547C47.998 17.816547 47.715594 16.887047 47.183594 16.123047C46.230594 14.756047 44.584875 14.002 42.546875 14L42.537109 14 z M 18.5 22C11.839 22 6.8667031 23.71375 3.7207031 27.09375C2.6067031 28.28875 1.997 29.854953 2 31.501953C2.003 33.241953 2.68025 34.875609 3.90625 36.099609C5.39425 37.585609 6.7024687 38.012672 7.8554688 38.388672C8.7844687 38.691672 9.5179687 38.932031 10.292969 39.707031C11.067969 40.482031 11.308328 41.215531 11.611328 42.144531C11.987328 43.297531 12.414391 44.60575 13.900391 46.09375C15.126391 47.32075 16.759047 47.998 18.498047 48L18.505859 48C20.146859 48 21.706531 47.393016 22.894531 46.291016C23.417531 45.806016 28 41.275 28 31.5C28 31.07 27.970109 30.633172 27.912109 30.201172C27.360109 26.052172 23.946828 22.640891 19.798828 22.087891C19.367828 22.029891 18.931 22 18.5 22 z M 38.728516 30C37.868516 30 36.992047 30.109125 36.123047 30.328125C32.585047 31.217125 30.009047 33.741078 29.998047 36.330078C29.997047 36.682078 30.043766 37.030187 30.134766 37.367188C30.725766 39.561187 33.118469 40.987 36.230469 41L36.269531 41C37.131531 41 38.007 40.889875 38.875 40.671875C42.419 39.781875 44.995 37.253156 45 34.660156C45 34.311156 44.955234 33.965859 44.865234 33.630859C44.271234 31.426859 41.864375 30.002 38.734375 30L38.728516 30 z" fill="#9CA3AF" />
</svg>